<?xml version="1.0" encoding="UTF-8" standalone="no"?>
<!DOCTYPE svg PUBLIC "-//W3C//DTD SVG 1.1//EN" "http://www.w3.org/Graphics/SVG/1.1/DTD/svg11.dtd">

<!-- Created with Vectornator (http://vectornator.io/) -->
<svg height="100%" stroke-miterlimit="10" style="fill-rule:nonzero;clip-rule:evenodd;stroke-linecap:round;stroke-linejoin:round;" version="1.1" viewBox="0 0 512 512" width="100%" xml:space="preserve" xmlns="http://www.w3.org/2000/svg" xmlns:vectornator="http://vectornator.io" xmlns:xlink="http://www.w3.org/1999/xlink">
<metadata>
<vectornator:setting key="IsTimeLapseWatermarkDisabled" value="false"/>
<vectornator:setting key="UndoHistoryDisabled" value="true"/>
<vectornator:setting key="VNDimensionsVisible" value="true"/>
<vectornator:setting key="VNSnapToGuides" value="true"/>
<vectornator:setting key="WDCMYKEnabledKey" value="false"/>
<vectornator:setting key="WDDisplayWhiteBackground" value="false"/>
<vectornator:setting key="WDDynamicGuides" value="false"/>
<vectornator:setting key="WDGuidesVisible" value="true"/>
<vectornator:setting key="WDIsolateActiveLayer" value="false"/>
<vectornator:setting key="WDOutlineMode" value="false"/>
<vectornator:setting key="WDRulersVisible" value="true"/>
<vectornator:setting key="WDSnapToEdges" value="false"/>
<vectornator:setting key="WDSnapToGrid" value="false"/>
<vectornator:setting key="WDSnapToPoints" value="false"/>
<vectornator:setting key="WDUnits" value="Pixels"/>
</metadata>
<defs/>
<g id="Layer-1" vectornator:layerName="Layer 1">
<path d="M234.577 106.872L281.272 160.325C300.939 182.838 298.632 217.032 276.119 236.699L276.119 236.699C253.606 256.366 219.412 254.059 199.745 231.546L153.05 178.094C133.383 155.58 135.69 121.387 158.203 101.719L158.203 101.719C180.716 82.0523 214.91 84.3594 234.577 106.872Z" fill="#b8e7b6" fill-opacity="0.850211" fill-rule="evenodd" opacity="1" stroke="none"/>
<path d="M330.273 182.409L281.142 233.632C260.449 255.206 226.185 255.92 204.611 235.227L204.611 235.227C183.037 214.535 182.323 180.27 203.016 158.696L252.146 107.474C272.839 85.8997 307.103 85.1854 328.677 105.878L328.677 105.878C350.251 126.571 350.966 160.835 330.273 182.409Z" fill="#74c6e9" fill-opacity="0.850211" fill-rule="evenodd" opacity="1" stroke="none"/>
</g>
</svg>
